<?xml version="1.0" encoding="utf-8"?>
<!-- Generator: Adobe Illustrator 19.0.0, SVG Export Plug-In . SVG Version: 6.00 Build 0)  -->
<svg version="1.1" id="ques" xmlns="http://www.w3.org/2000/svg" xmlns:xlink="http://www.w3.org/1999/xlink" x="0px" y="0px"
	 viewBox="-154 288.9 285.8 265" style="enable-background:new -154 288.9 285.8 265;" xml:space="preserve">
<style type="text/css">
	.st0{fill:#686868;}
</style>
<g id="icon_Ques">
	<g id="XMLID_1_">
		<path id="XMLID_19_" class="st0" d="M123,445.6H34c-4.8,0-8.7,3.9-8.7,8.7v71c0,4.8,3.9,8.7,8.7,8.7h68.5l19.2,19.9V534h1.4
			c4.8,0,8.7-3.9,8.7-8.7v-71C131.7,449.5,127.8,445.6,123,445.6z M85.6,461.9l-1.5,39.3h-9.6l-1.4-39.3H85.6z M84.4,517.7
			c-1.3,1.2-2.8,1.8-4.6,1.8c-2.2,0-4-0.6-5.4-1.8s-2-2.7-2-4.5s0.7-3.3,2-4.5c1.3-1.2,3-1.8,4.9-1.8c2,0,3.6,0.6,4.9,1.8
			c1.3,1.2,2,2.7,2,4.5C86.3,515,85.7,516.5,84.4,517.7z"/>
		<rect id="XMLID_10_" x="-114.8" y="288.9" class="st0" width="59.3" height="58.4"/>
		<rect id="XMLID_9_" x="-55.5" y="347.3" class="st0" width="59.3" height="58.4"/>
		<rect id="XMLID_8_" x="-114.8" y="405.7" class="st0" width="59.3" height="58.4"/>
		<rect id="XMLID_4_" x="-55.5" y="464.1" class="st0" width="59.3" height="58.4"/>
		<rect id="XMLID_6_" x="3.8" y="288.9" class="st0" width="59.3" height="58.4"/>
		<path id="XMLID_2_" class="st0" d="M17.9,449.3c0-6.2,4.8-10.8,10.4-10.8h34.8v-32.8H3.8v58.4H18"/>
		<rect id="XMLID_12_" x="63.1" y="347.3" class="st0" width="59.3" height="58.4"/>
		<rect id="XMLID_7_" x="-154" y="464.1" class="st0" width="39.2" height="58.4"/>
		<rect id="XMLID_14_" x="-154" y="347.3" class="st0" width="39.2" height="58.4"/>
	</g>
</g>
</svg>
